<svg width="21" height="20" viewBox="0 0 21 20" fill="none" xmlns="http://www.w3.org/2000/svg">
<path d="M14.5303 2.8125H14.5312C15.0386 2.81268 15.5416 2.90085 16.0176 3.07324L16.2197 3.15234C16.6875 3.34858 17.1169 3.62485 17.4893 3.96777L17.6455 4.11914C18.4744 4.96296 18.9385 6.09841 18.9385 7.28125C18.9385 8.39021 18.5309 9.45783 17.7969 10.2822L17.6455 10.4434L10.499 17.6797L3.35352 10.4434C2.52476 9.59956 2.06055 8.46398 2.06055 7.28125C2.06055 6.17217 2.4689 5.1047 3.20312 4.28027L3.35352 4.11914C3.76009 3.70576 4.24552 3.37743 4.78027 3.15332C5.31494 2.9293 5.88905 2.81348 6.46875 2.81348C7.04847 2.81351 7.62255 2.92925 8.15723 3.15332C8.62493 3.34934 9.0544 3.62513 9.42676 3.96777L9.58301 4.11914L9.58398 4.12012L10.2773 4.82031L10.5 5.04395L10.7217 4.82031L11.415 4.12012L11.417 4.11914C11.7722 3.75687 12.187 3.4591 12.6436 3.24023L12.8418 3.15137C13.3097 2.95511 13.8078 2.8422 14.3135 2.81738L14.5303 2.8125ZM14.5303 3.4375C14.0315 3.43694 13.5374 3.53695 13.0781 3.73145C12.6759 3.9018 12.3074 4.14165 11.9893 4.43945L11.8574 4.56836L10.5 5.95215L9.13574 4.55664L9.13477 4.55566L9.00195 4.42676C8.68314 4.13284 8.31479 3.89664 7.91406 3.72852C7.45634 3.53652 6.96511 3.43753 6.46875 3.4375C5.97222 3.4375 5.48033 3.53642 5.02246 3.72852C4.62191 3.89659 4.25425 4.13299 3.93555 4.42676L3.80176 4.55566C3.08775 5.2806 2.6875 6.25787 2.6875 7.27539C2.6876 8.22923 3.0396 9.14719 3.67188 9.85547L3.80176 9.99414H3.80273L10.2773 16.5508L10.5 16.7764L10.7217 16.5508L17.1973 9.99414C17.9113 9.26928 18.3114 8.29283 18.3115 7.27539C18.3115 6.32126 17.9597 5.40276 17.3271 4.69434L17.1973 4.55566C16.8497 4.20141 16.4352 3.91953 15.9775 3.72754C15.5195 3.53544 15.0269 3.43708 14.5303 3.4375Z" fill="#BDBDBD" stroke="#252B42" stroke-width="0.625"/>
</svg>
